<svg xmlns="http://www.w3.org/2000/svg" width="64" height="64" fill="none" viewBox="0 0 64 64"><ellipse cx="32" cy="48" fill="#e5a73b" rx="20" ry="8"/><ellipse cx="32" cy="46" fill="#ffd766" rx="20" ry="8"/><ellipse cx="32" cy="38" fill="#e5a73b" rx="18" ry="7"/><ellipse cx="32" cy="36" fill="#ffd766" rx="18" ry="7"/><ellipse cx="32" cy="28" fill="#e5a73b" rx="16" ry="6"/><ellipse cx="32" cy="26" fill="#ffe66d" rx="16" ry="6"/><circle cx="32" cy="24" r="12" fill="#ffe66d"/><circle cx="32" cy="24" r="10" fill="#fff3b0"/><circle cx="32" cy="24" r="8" fill="#ffe66d"/><path stroke="#e5a73b" stroke-linecap="round" stroke-width="2" d="M32 18v12m-3-10s0-1 3-1 3 2 3 2c0 2-3 2-3 2s-3 0-3 2 3 2 3 2c3 0 3 1 3 1"/><circle cx="48" cy="16" r="2" fill="#fff8e7"/><circle cx="52" cy="20" r="1.5" fill="#fff8e7"/><circle cx="14" cy="22" r="1.5" fill="#fff8e7"/></svg>