<svg xmlns="http://www.w3.org/2000/svg" width="64" height="64" fill="none" viewBox="0 0 64 64"><path fill="#88d8f5" d="M10 16c0-2 2-4 6-4h32c4 0 6 2 6 4v36c0 2-2 4-6 4H16c-4 0-6-2-6-4z"/><path fill="#a8e6cf" d="M12 16c0-1.5 1.5-3 4-3h32c2.5 0 4 1.5 4 3v34c0 1.5-1.5 3-4 3H16c-2.5 0-4-1.5-4-3z"/><rect width="6" height="44" x="10" y="12" fill="#7bc9a6" rx="2"/><rect width="30" height="30" x="18" y="18" fill="#fff8e7" rx="2"/><rect width="26" height="26" x="20" y="20" fill="#fff" rx="1"/><rect width="16" height="2" x="23" y="24" fill="#a8e6cf" rx="1"/><rect width="20" height="2" x="23" y="29" fill="#c9e4de" rx="1"/><rect width="14" height="2" x="23" y="34" fill="#c9e4de" rx="1"/><rect width="18" height="2" x="23" y="39" fill="#c9e4de" rx="1"/><circle cx="48" cy="14" r="8" fill="#ffe66d"/><circle cx="48" cy="14" r="6" fill="#fff3b0"/><path stroke="#e5a73b" stroke-width="1.5" d="M45 20v3h6v-3"/><rect width="4" height="2" x="46" y="23" fill="#e5a73b" rx="1"/><circle cx="56" cy="8" r="2" fill="#ffe66d"/></svg>