<svg xmlns="http://www.w3.org/2000/svg" width="64" height="64" fill="none" viewBox="0 0 64 64"><ellipse cx="32" cy="34" fill="#e8d4ff" opacity=".4" rx="24" ry="22"/><path fill="#c9b1ff" stroke="#a088d8" stroke-linejoin="round" stroke-width="2" d="m32 6 6.5 16.5L56 24 43 36l4 18-15-9-15 9 4-18L8 24l17.5-1.5z"/><path fill="#dfd0ff" d="m32 12 4.5 11.5L48 25l-9 8 3 12-10-6-10 6 3-12-9-8 11.5-1.5z"/><path fill="#e8d4ff" d="m32 18 3 8 8 1-6 5 2 8-7-4-7 4 2-8-6-5 8-1z"/><circle cx="32" cy="30" r="6" fill="#c9b1ff"/><circle cx="32" cy="30" r="4" fill="#dfd0ff"/><text x="32" y="33" fill="#8b6cc4" font-family="Arial, sans-serif" font-size="8" font-weight="bold" text-anchor="middle">XP</text><circle cx="52" cy="12" r="2.5" fill="#ffe66d"/><circle cx="12" cy="16" r="2" fill="#ffe66d"/><circle cx="56" cy="44" r="1.5" fill="#c9b1ff"/></svg>