<svg xmlns="http://www.w3.org/2000/svg" width="64" height="64" fill="none" viewBox="0 0 64 64"><rect width="44" height="30" x="10" y="28" fill="#f8a5a5" rx="4"/><rect width="44" height="30" x="10" y="26" fill="#ffbaba" rx="4"/><rect width="52" height="12" x="6" y="18" fill="#f8a5a5" rx="3"/><rect width="52" height="12" x="6" y="16" fill="#ffcfcf" rx="3"/><path fill="#88d8f5" d="M28 16h8v42h-8z"/><path fill="#a8e6f5" d="M29 16h6v42h-6z"/><path fill="#88d8f5" d="M6 20h52v6H6z"/><path fill="#a8e6f5" d="M6 19h52v5H6z"/><ellipse cx="24" cy="14" fill="#88d8f5" rx="8" ry="6"/><ellipse cx="40" cy="14" fill="#88d8f5" rx="8" ry="6"/><ellipse cx="24" cy="13" fill="#a8e6f5" rx="7" ry="5"/><ellipse cx="40" cy="13" fill="#a8e6f5" rx="7" ry="5"/><circle cx="32" cy="14" r="5" fill="#88d8f5"/><circle cx="32" cy="13" r="4" fill="#a8e6f5"/><circle cx="54" cy="8" r="3" fill="#ffe66d"/><circle cx="10" cy="10" r="2" fill="#ffe66d"/><circle cx="58" cy="18" r="2" fill="#ffe66d"/><path fill="#ffe66d" d="m6 6 1.5 3H11l-2.5 2 1 3L6 12l-3.5 2 1-3L1 9h3.5Z"/></svg>