<svg xmlns="http://www.w3.org/2000/svg" width="64" height="64" fill="none" viewBox="0 0 64 64"><ellipse cx="32" cy="32" fill="#8b5a2b" rx="24" ry="16" transform="rotate(-30 32 32)"/><ellipse cx="31" cy="31" fill="#a67c52" rx="24" ry="16" transform="rotate(-30 31 31)"/><ellipse cx="30" cy="30" fill="#c49a6c" rx="20" ry="13" transform="rotate(-30 30 30)"/><path stroke="#fff8e7" stroke-linecap="round" stroke-width="2.5" d="m24 26 16 12"/><path stroke="#fff8e7" stroke-linecap="round" stroke-width="2" d="m26 30 4-2m0 5 4-2m0 5 4-2"/><circle cx="32" cy="32" r="12" fill="#a8e6cf" opacity=".9"/><path fill="#fff" d="m28 24 14 8-14 8z"/><path stroke="#88d8f5" stroke-linecap="round" stroke-width="2" d="M8 24c-2-2-4-4-6-4m8 12H0m8 8c-2 2-4 4-6 4"/><circle cx="54" cy="16" r="2.5" fill="#ffe66d"/><circle cx="58" cy="24" r="1.5" fill="#ffe66d"/></svg>