<svg xmlns="http://www.w3.org/2000/svg" width="64" height="64" fill="none" viewBox="0 0 64 64"><circle cx="32" cy="34" r="24" fill="#c9b1ff"/><circle cx="32" cy="32" r="24" fill="#dfd0ff"/><circle cx="32" cy="32" r="20" fill="#fff8e7"/><circle cx="32" cy="32" r="18" fill="#fff"/><circle cx="32" cy="32" r="2" fill="#8b6cc4"/><rect width="2" height="4" x="31" y="16" fill="#c9b1ff" rx="1"/><rect width="2" height="4" x="31" y="44" fill="#c9b1ff" rx="1"/><rect width="4" height="2" x="16" y="31" fill="#c9b1ff" rx="1"/><rect width="4" height="2" x="44" y="31" fill="#c9b1ff" rx="1"/><rect width="2" height="12" x="31" y="22" fill="#8b6cc4" rx="1"/><rect width="10" height="2" x="32" y="30" fill="#f8a5a5" rx="1"/><path fill="#ffe66d" d="M8 24c-4-4-4-8 0-10s8 2 6 8c-2 4-6 6-6 2m48 0c4-4 4-8 0-10s-8 2-6 8c2 4 6 6 6 2"/><path fill="#fff3b0" d="M10 26c-4-2-6-6-4-10 2-2 6 0 6 4s-2 6-2 6m44 0c4-2 6-6 4-10-2-2-6 0-6 4s2 6 2 6"/><path stroke="#88d8f5" stroke-linecap="round" stroke-width="2" d="M4 32H0m6 6-4 2m4-14-4-2"/><circle cx="20" cy="8" r="2" fill="#ffe66d"/><circle cx="44" cy="6" r="2.5" fill="#ffe66d"/></svg>