<svg xmlns="http://www.w3.org/2000/svg" width="64" height="64" fill="none" viewBox="0 0 64 64"><ellipse cx="36" cy="36" fill="#f8a5a5" rx="18" ry="14"/><ellipse cx="36" cy="34" fill="#ffbaba" rx="18" ry="14"/><rect width="16" height="12" x="8" y="28" fill="#f8a5a5" rx="4"/><rect width="16" height="12" x="8" y="26" fill="#ffcfcf" rx="4"/><circle cx="36" cy="32" r="6" fill="#e88a8a"/><circle cx="36" cy="31" r="4" fill="#f8a5a5"/><circle cx="52" cy="28" r="6" fill="#ffe66d" stroke="#e5a73b" stroke-width="2"/><circle cx="52" cy="28" r="3" stroke="#e5a73b" stroke-width="1.5"/><path stroke="#a8e6cf" stroke-linecap="round" stroke-width="3" d="M52 34c0 8-6 14-14 18m0 0c-8 4-16 2-20-2"/><path stroke="#88d8f5" stroke-linecap="round" stroke-width="2" d="M18 20c-4-2-6-4-6-8m2 12c-4-2-8-4-10-8m18 0c-2-2-4-6-4-10"/><circle cx="28" cy="24" r="2" fill="#fff8e7"/></svg>