<svg xmlns="http://www.w3.org/2000/svg" width="64" height="64" fill="none" viewBox="0 0 64 64"><circle cx="32" cy="32" r="26" fill="#a8e6cf"/><circle cx="32" cy="30" r="26" fill="#c5f0dc"/><path fill="#4ecdc4" stroke="#3dad9e" stroke-linejoin="round" stroke-width="2" d="m32 10 16 20H38v20H26V30H16z"/><path fill="#7ee8df" d="m32 16 10 12h-6v18h-8V28h-6z"/><circle cx="52" cy="14" r="3" fill="#ffe66d"/><circle cx="56" cy="22" r="2" fill="#ffe66d"/><circle cx="12" cy="18" r="2.5" fill="#ffe66d"/><circle cx="8" cy="26" r="1.5" fill="#ffe66d"/><path fill="#ffe66d" d="m54 36 2 4h4l-3 3 1 4-4-2-4 2 1-4-3-3h4Zm-44 4 1.5 3H15l-2.5 2 1 3-3.5-2-3.5 2 1-3L5 43h3.5Z"/><text x="50" fill="#4ecdc4" font-family="Arial" font-size="12" font-weight="bold">+</text><text x="8" fill="#4ecdc4" font-family="Arial" font-size="12" font-weight="bold">+</text></svg>