<svg xmlns="http://www.w3.org/2000/svg" width="400" height="400" fill="none" viewBox="0 0 400 400"><defs><pattern id="a" width="80" height="400" patternUnits="userSpaceOnUse"><path fill="#a8e6cf" d="M0 0h40v400H0z"/><path fill="#9ad9be" d="M40 0h40v400H40z"/></pattern></defs><path fill="url(#a)" d="M0 0h400v400H0z"/><path stroke="#fff" stroke-opacity=".6" stroke-width="3" d="M0 80h400M0 160h400M0 240h400M0 320h400"/><path stroke="#fff" stroke-opacity=".4" stroke-width="2" d="M120 0v10M280 0v10M120 75v10m160-10v10m-160 70v10m160-10v10m-160 70v10m160-10v10m-160 70v10m160-10v10m-160 65v10m160-10v10"/><path fill="#5bc88a" d="m20 390 4-10 4 10Zm40-5 4-10 4 10Zm40 7 4-10 4 10Zm80-4 4-10 4 10Zm60 2 4-10 4 10Zm60-4 4-10 4 10Zm60 5 4-10 4 10Z" opacity=".3"/></svg>