<svg xmlns="http://www.w3.org/2000/svg" width="400" height="400" fill="none" viewBox="0 0 400 400"><defs><linearGradient id="a" x1="0%" x2="100%" y1="0%" y2="100%"><stop offset="0%" style="stop-color:#fff8e7"/><stop offset="100%" style="stop-color:bisque"/></linearGradient><pattern id="b" width="100" height="100" patternUnits="userSpaceOnUse"><ellipse cx="50" cy="50" fill="#c49a6c" opacity=".15" rx="12" ry="8"/><path stroke="#fff8e7" d="m46 48 8 4" opacity=".15"/></pattern></defs><path fill="url(#a)" d="M0 0h400v400H0z"/><path fill="url(#b)" d="M0 0h400v400H0z"/><circle r="80" fill="#a8e6cf" opacity=".2"/><circle r="60" fill="#a8e6cf" opacity=".15"/><circle cx="400" r="100" fill="#88d8f5" opacity=".2"/><circle cx="400" r="70" fill="#88d8f5" opacity=".15"/><circle cy="400" r="90" fill="#c9b1ff" opacity=".2"/><circle cy="400" r="60" fill="#c9b1ff" opacity=".15"/><circle cx="400" cy="400" r="110" fill="#f8a5a5" opacity=".2"/><circle cx="400" cy="400" r="80" fill="#f8a5a5" opacity=".15"/><path fill="#ffe66d" d="m60 120 2 6h6l-5 4 2 6-5-4-5 4 2-6-5-4h6Zm280-40 2 6h6l-5 4 2 6-5-4-5 4 2-6-5-4h6Zm-60 240 2 6h6l-5 4 2 6-5-4-5 4 2-6-5-4h6Zm-180-40 2 6h6l-5 4 2 6-5-4-5 4 2-6-5-4h6Z" opacity=".4"/><ellipse cx="150" cy="60" fill="#c49a6c" opacity=".25" rx="10" ry="6"/><ellipse cx="300" cy="180" fill="#c49a6c" opacity=".25" rx="10" ry="6"/><ellipse cx="80" cy="340" fill="#c49a6c" opacity=".25" rx="10" ry="6"/><ellipse cx="350" cy="260" fill="#c49a6c" opacity=".25" rx="10" ry="6"/><circle cx="180" cy="100" r="4" fill="#f8a5a5" opacity=".3"/><circle cx="220" cy="280" r="4" fill="#88d8f5" opacity=".3"/><circle cx="320" cy="120" r="4" fill="#a8e6cf" opacity=".3"/><circle cx="60" cy="200" r="4" fill="#c9b1ff" opacity=".3"/><circle cx="380" cy="350" r="4" fill="#ffe66d" opacity=".3"/><circle cx="200" cy="380" r="4" fill="#f8a5a5" opacity=".3"/></svg>