<svg xmlns="http://www.w3.org/2000/svg" width="400" height="300" fill="none" viewBox="0 0 400 300"><defs><linearGradient id="a" x1="0%" x2="0%" y1="0%" y2="100%"><stop offset="0%" style="stop-color:#87ceeb"/><stop offset="40%" style="stop-color:#a8e6f5"/><stop offset="100%" style="stop-color:#e8f8ff"/></linearGradient></defs><path fill="url(#a)" d="M0 0h400v300H0z"/><g fill="#fff" opacity=".9"><ellipse cx="80" cy="60" rx="40" ry="25"/><ellipse cx="110" cy="55" rx="35" ry="22"/><ellipse cx="50" cy="65" rx="30" ry="18"/><ellipse cx="280" cy="80" rx="45" ry="28"/><ellipse cx="320" cy="75" rx="38" ry="24"/><ellipse cx="250" cy="85" rx="32" ry="20"/><ellipse cx="180" cy="120" rx="35" ry="20"/><ellipse cx="205" cy="115" rx="30" ry="18"/><ellipse cx="155" cy="125" rx="28" ry="16"/><ellipse cx="350" cy="140" rx="25" ry="15"/><ellipse cx="370" cy="138" rx="20" ry="12"/><ellipse cx="40" cy="150" rx="22" ry="14"/><ellipse cx="60" cy="148" rx="18" ry="11"/></g><circle cx="350" cy="50" r="35" fill="#ffe66d" opacity=".9"/><circle cx="350" cy="50" r="28" fill="#fff3b0"/><path stroke="#ffe66d" stroke-width="3" d="M350 0v15m35 35h15m-25-25 13-13m-13 63 13 13m-63-63-13-13" opacity=".4"/><path stroke="#6b8ab8" stroke-width="2" d="m120 40 10-5 10 5m60 15 10-5 10 5m40-20 8-5 8 5" opacity=".5"/></svg>