<svg xmlns="http://www.w3.org/2000/svg" width="400" height="200" fill="none" viewBox="0 0 400 200"><defs><linearGradient id="a" x1="0%" x2="0%" y1="0%" y2="100%"><stop offset="0%" style="stop-color:#88a4c8"/><stop offset="100%" style="stop-color:#6b8ab8"/></linearGradient></defs><path fill="url(#a)" d="M0 0h400v200H0z"/><g fill="#f8a5a5"><circle cx="10" cy="20" r="8"/><circle cx="30" cy="22" r="8"/><circle cx="50" cy="18" r="8"/><circle cx="70" cy="21" r="8"/><circle cx="90" cy="19" r="8"/><circle cx="110" cy="22" r="8"/><circle cx="130" cy="20" r="8"/><circle cx="150" cy="18" r="8"/><circle cx="170" cy="21" r="8"/><circle cx="190" cy="19" r="8"/><circle cx="210" cy="22" r="8"/><circle cx="230" cy="20" r="8"/><circle cx="250" cy="18" r="8"/><circle cx="270" cy="21" r="8"/><circle cx="290" cy="19" r="8"/><circle cx="310" cy="22" r="8"/><circle cx="330" cy="20" r="8"/><circle cx="350" cy="18" r="8"/><circle cx="370" cy="21" r="8"/><circle cx="390" cy="19" r="8"/></g><g fill="#ffe66d"><circle cx="20" cy="45" r="9"/><circle cx="40" cy="47" r="9"/><circle cx="60" cy="43" r="9"/><circle cx="80" cy="46" r="9"/><circle cx="100" cy="44" r="9"/><circle cx="120" cy="47" r="9"/><circle cx="140" cy="45" r="9"/><circle cx="160" cy="43" r="9"/><circle cx="180" cy="46" r="9"/><circle cx="200" cy="44" r="9"/><circle cx="220" cy="47" r="9"/><circle cx="240" cy="45" r="9"/><circle cx="260" cy="43" r="9"/><circle cx="280" cy="46" r="9"/><circle cx="300" cy="44" r="9"/><circle cx="320" cy="47" r="9"/><circle cx="340" cy="45" r="9"/><circle cx="360" cy="43" r="9"/><circle cx="380" cy="46" r="9"/></g><g fill="#88d8f5"><circle cx="10" cy="72" r="10"/><circle cx="32" cy="74" r="10"/><circle cx="54" cy="70" r="10"/><circle cx="76" cy="73" r="10"/><circle cx="98" cy="71" r="10"/><circle cx="120" cy="74" r="10"/><circle cx="142" cy="72" r="10"/><circle cx="164" cy="70" r="10"/><circle cx="186" cy="73" r="10"/><circle cx="208" cy="71" r="10"/><circle cx="230" cy="74" r="10"/><circle cx="252" cy="72" r="10"/><circle cx="274" cy="70" r="10"/><circle cx="296" cy="73" r="10"/><circle cx="318" cy="71" r="10"/><circle cx="340" cy="74" r="10"/><circle cx="362" cy="72" r="10"/><circle cx="384" cy="70" r="10"/></g><g fill="#a8e6cf"><circle cx="20" cy="100" r="11"/><circle cx="44" cy="102" r="11"/><circle cx="68" cy="98" r="11"/><circle cx="92" cy="101" r="11"/><circle cx="116" cy="99" r="11"/><circle cx="140" cy="102" r="11"/><circle cx="164" cy="100" r="11"/><circle cx="188" cy="98" r="11"/><circle cx="212" cy="101" r="11"/><circle cx="236" cy="99" r="11"/><circle cx="260" cy="102" r="11"/><circle cx="284" cy="100" r="11"/><circle cx="308" cy="98" r="11"/><circle cx="332" cy="101" r="11"/><circle cx="356" cy="99" r="11"/><circle cx="380" cy="102" r="11"/></g><g fill="#c9b1ff"><circle cx="15" cy="130" r="12"/><circle cx="42" cy="132" r="12"/><circle cx="69" cy="128" r="12"/><circle cx="96" cy="131" r="12"/><circle cx="123" cy="129" r="12"/><circle cx="150" cy="132" r="12"/><circle cx="177" cy="130" r="12"/><circle cx="204" cy="128" r="12"/><circle cx="231" cy="131" r="12"/><circle cx="258" cy="129" r="12"/><circle cx="285" cy="132" r="12"/><circle cx="312" cy="130" r="12"/><circle cx="339" cy="128" r="12"/><circle cx="366" cy="131" r="12"/><circle cx="393" cy="129" r="12"/></g><path fill="#ffbaba" d="m60 60 5-20 5 20Zm120-5 5-20 5 20Zm120 3 5-20 5 20Z"/><path fill="#fff3b0" d="m120 62 5-20 5 20Zm120-6 5-20 5 20Zm120 4 5-20 5 20Z"/><path fill="#e5a73b" d="M0 155h400v8H0z"/><path fill="#ffe66d" d="M0 150h400v8H0z"/><path fill="#a8e6cf" d="M0 163h400v37H0z"/></svg>