<svg xmlns="http://www.w3.org/2000/svg" width="48" height="48" fill="none" viewBox="0 0 48 48"><rect width="40" height="36" x="4" y="10" fill="#e88a8a" rx="4"/><rect width="38" height="34" x="5" y="11" fill="#f8a5a5" rx="3"/><rect width="40" height="10" x="4" y="10" fill="#e88a8a" rx="4"/><rect width="38" height="8" x="5" y="11" fill="#ffbaba" rx="3"/><rect width="4" height="8" x="12" y="4" fill="#6b8ab8" rx="2"/><rect width="4" height="8" x="32" y="4" fill="#6b8ab8" rx="2"/><rect width="6" height="6" x="10" y="24" fill="#fff8e7" rx="1"/><rect width="6" height="6" x="20" y="24" fill="#fff8e7" rx="1"/><rect width="6" height="6" x="30" y="24" fill="#4ecdc4" rx="1"/><rect width="6" height="6" x="10" y="34" fill="#fff8e7" rx="1"/><rect width="6" height="6" x="20" y="34" fill="#fff8e7" rx="1"/><rect width="6" height="6" x="30" y="34" fill="#fff8e7" rx="1"/></svg>