<svg xmlns="http://www.w3.org/2000/svg" width="48" height="48" fill="none" viewBox="0 0 48 48"><circle cx="24" cy="14" r="8" fill="#f8a5a5"/><circle cx="24" cy="12" r="7" fill="#ffbaba"/><circle cx="12" cy="20" r="6" fill="#88d8f5"/><circle cx="12" cy="18" r="5" fill="#a8e6f5"/><circle cx="36" cy="20" r="6" fill="#a8e6cf"/><circle cx="36" cy="18" r="5" fill="#c5f0dc"/><path fill="#f8a5a5" d="M16 26h16v16c0 2-2 4-4 4H20c-2 0-4-2-4-4z"/><path fill="#88d8f5" d="M4 28h12v14c0 2-1 4-3 4H7c-2 0-3-2-3-4z"/><path fill="#a8e6cf" d="M32 28h12v14c0 2-1 4-3 4h-6c-2 0-3-2-3-4z"/></svg>