<svg xmlns="http://www.w3.org/2000/svg" width="64" height="64" fill="none" viewBox="0 0 64 64"><ellipse cx="32" cy="58" fill="#7ed8a6" opacity=".4" rx="24" ry="6"/><rect width="52" height="28" x="6" y="28" fill="#b8860b" rx="4"/><rect width="50" height="26" x="7" y="29" fill="#e5a73b" rx="3"/><rect width="52" height="16" x="6" y="14" fill="#b8860b" rx="4"/><rect width="50" height="14" x="7" y="15" fill="#ffe66d" rx="3"/><rect width="12" height="20" x="26" y="22" fill="#b8860b" rx="2"/><rect width="10" height="18" x="27" y="23" fill="#e5a73b" rx="2"/><circle cx="32" cy="32" r="6" fill="#e5a73b"/><circle cx="32" cy="31" r="5" fill="#ffe66d"/><path fill="#fff3b0" d="m32 27 1 3h3l-2 2 1 3-3-2-3 2 1-3-2-2h3z"/><circle cx="16" cy="18" r="2" fill="#ffe66d"/><circle cx="48" cy="16" r="2.5" fill="#ffe66d"/><circle cx="12" cy="40" r="1.5" fill="#ffe66d"/></svg>