<svg xmlns="http://www.w3.org/2000/svg" width="64" height="64" fill="none" viewBox="0 0 64 64"><path fill="#e5a73b" d="M20 16h24v16c0 10-6 16-12 16s-12-6-12-16z"/><path fill="#ffe66d" d="M20 14h24v16c0 10-6 16-12 16s-12-6-12-16z"/><path fill="#fff3b0" d="M24 18h16v10c0 8-4 14-8 14s-8-6-8-14z"/><path stroke="#e5a73b" stroke-linecap="round" stroke-width="4" d="M20 20c-6 0-10 4-10 8s4 8 10 8"/><path stroke="#ffe66d" stroke-linecap="round" stroke-width="4" d="M20 18c-6 0-10 4-10 8s4 8 10 8"/><path stroke="#e5a73b" stroke-linecap="round" stroke-width="4" d="M44 20c6 0 10 4 10 8s-4 8-10 8"/><path stroke="#ffe66d" stroke-linecap="round" stroke-width="4" d="M44 18c6 0 10 4 10 8s-4 8-10 8"/><path fill="#e5a73b" d="M26 46h12v6H26z"/><path fill="#ffe66d" d="M26 44h12v6H26z"/><rect width="20" height="6" x="22" y="52" fill="#e5a73b" rx="2"/><rect width="20" height="6" x="22" y="50" fill="#ffe66d" rx="2"/><path fill="#f8a5a5" d="m32 22 2 6h6l-5 4 2 6-5-4-5 4 2-6-5-4h6Z"/><circle cx="8" cy="12" r="3" fill="#a8e6cf"/><circle cx="56" cy="10" r="2.5" fill="#88d8f5"/><circle cx="52" cy="52" r="2" fill="#c9b1ff"/><circle cx="12" cy="48" r="2" fill="#f8a5a5"/><rect width="4" height="4" x="6" y="24" fill="#f8a5a5" rx="1" transform="rotate(15 6 24)"/><rect width="4" height="4" x="54" y="28" fill="#88d8f5" rx="1" transform="rotate(-20 54 28)"/><rect width="3" height="3" x="4" y="36" fill="#a8e6cf" rx="1" transform="rotate(30 4 36)"/><rect width="3" height="3" x="58" y="40" fill="#ffe66d" rx="1" transform="rotate(-10 58 40)"/><path fill="#ffe66d" d="m6 6 1.5 3H11l-2.5 2 1 3L6 12l-3.5 2 1-3L1 9h3.5Zm52 0 1.5 3H63l-2.5 2 1 3-3.5-2-3.5 2 1-3L53 9h3.5Z"/></svg>