<svg xmlns="http://www.w3.org/2000/svg" width="64" height="64" fill="none" viewBox="0 0 64 64"><circle cx="32" cy="34" r="26" fill="#9b8ab8"/><circle cx="32" cy="32" r="26" fill="#c9b1ff"/><rect width="28" height="24" x="18" y="30" fill="#8b7aa3" rx="4"/><rect width="28" height="24" x="18" y="28" fill="#a990c9" rx="4"/><rect width="24" height="20" x="20" y="30" fill="#c9b1ff" rx="3"/><path stroke="#8b7aa3" stroke-linecap="round" stroke-width="6" d="M24 28v-8c0-6 4-10 8-10s8 4 8 10v8"/><path stroke="#a990c9" stroke-linecap="round" stroke-width="6" d="M24 26v-8c0-6 4-10 8-10s8 4 8 10v8"/><circle cx="32" cy="38" r="4" fill="#8b7aa3"/><rect width="4" height="8" x="30" y="38" fill="#8b7aa3" rx="1"/><ellipse cx="26" cy="34" fill="#dfd0ff" opacity=".6" rx="3" ry="4"/><circle cx="12" cy="20" r="1.5" fill="#dfd0ff"/><circle cx="52" cy="24" r="1.5" fill="#dfd0ff"/><circle cx="8" cy="44" r="1" fill="#dfd0ff"/><circle cx="56" cy="48" r="1" fill="#dfd0ff"/></svg>