<svg xmlns="http://www.w3.org/2000/svg" width="64" height="64" fill="none" viewBox="0 0 64 64"><circle cx="32" cy="34" r="26" fill="#7ed8a6"/><circle cx="32" cy="32" r="26" fill="#a8e6cf"/><circle cx="32" cy="32" r="20" fill="#c5f0dc"/><path stroke="#4ecdc4" stroke-linecap="round" stroke-linejoin="round" stroke-width="6" d="m20 32 8 8 16-16"/><path stroke="#7ee8df" stroke-linecap="round" stroke-linejoin="round" stroke-width="6" d="m20 30 8 8 16-16"/><circle cx="52" cy="12" r="3" fill="#ffe66d"/><circle cx="12" cy="16" r="2" fill="#ffe66d"/><circle cx="56" cy="24" r="2" fill="#ffe66d"/><circle cx="8" cy="40" r="2.5" fill="#ffe66d"/><path fill="#ffe66d" d="m54 44 2 4h4l-3 3 1 4-4-3-4 3 1-4-3-3h4Z"/><path stroke="#f8a5a5" stroke-linecap="round" stroke-width="2" d="m16 8-2-4"/><path stroke="#88d8f5" stroke-linecap="round" stroke-width="2" d="M20 6V2"/><path stroke="#c9b1ff" stroke-linecap="round" stroke-width="2" d="m24 8 2-4"/><path stroke="#f8a5a5" stroke-linecap="round" stroke-width="2" d="m40 58-2 4"/><path stroke="#88d8f5" stroke-linecap="round" stroke-width="2" d="M44 56v4"/><path stroke="#c9b1ff" stroke-linecap="round" stroke-width="2" d="m48 54 2 4"/></svg>