<svg xmlns="http://www.w3.org/2000/svg" width="64" height="64" fill="none" viewBox="0 0 64 64"><circle cx="32" cy="32" r="28" fill="#ffe66d"/><circle cx="32" cy="30" r="28" fill="#fff3b0"/><path fill="#88d8f5" d="M20 12h24v6c0 8-8 14-8 14s8 6 8 14v6H20v-6c0-8 8-14 8-14s-8-6-8-14z"/><path fill="#a8e6f5" d="M22 14h20v4c0 6-6 12-8 14 2 2 8 8 8 14v4H22v-4c0-6 6-12 8-14-2-2-8-8-8-14z"/><path fill="#ffe66d" d="M24 16h16v2c0 4-4 8-6 10h-4c-2-2-6-6-6-10zm0 32v-2c0-4 4-8 6-10h4c2 2 6 6 6 10v2z"/><ellipse cx="32" cy="32" fill="#ffe66d" rx="4" ry="2"/><path fill="#ffe66d" d="M31 30h2v8h-2z"/><rect width="28" height="4" x="18" y="10" fill="#c9b1ff" rx="2"/><rect width="28" height="4" x="18" y="50" fill="#c9b1ff" rx="2"/><circle cx="50" cy="14" r="2" fill="#f8a5a5"/><circle cx="14" cy="50" r="2" fill="#f8a5a5"/><path stroke="#a8e6cf" stroke-linecap="round" stroke-width="2" d="M10 28H6m4 4H4m6 4H6"/></svg>