<svg xmlns="http://www.w3.org/2000/svg" width="48" height="48" fill="none" viewBox="0 0 48 48"><path fill="#1a1a2e" d="M12 20h24v24c0 2-2 4-4 4H16c-2 0-4-2-4-4z"/><path fill="#2d2d44" d="M12 18h24v24c0 2-2 4-4 4H16c-2 0-4-2-4-4z"/><rect width="6" height="16" x="10" y="4" fill="#4ecdc4" rx="3"/><rect width="6" height="20" x="17" y="2" fill="#4ecdc4" rx="3"/><rect width="6" height="18" x="24" y="4" fill="#4ecdc4" rx="3"/><rect width="6" height="14" x="31" y="8" fill="#4ecdc4" rx="3"/><path fill="#7ee8df" d="M12 24h24v4H12z"/></svg>