<svg xmlns="http://www.w3.org/2000/svg" width="64" height="40" fill="none" viewBox="0 0 64 40"><ellipse cx="32" cy="36" fill="#000" opacity=".15" rx="20" ry="4"/><path fill="#8b4513" d="M6 20C6 8 18 2 32 2s26 6 26 18-12 18-26 18S6 32 6 20"/><path fill="#a0522d" d="M8 19C8 9 19 4 32 4s24 5 24 15-11 15-24 15S8 29 8 19"/><path fill="#cd853f" d="M12 14c2-6 10-9 20-9s18 3 20 9c-8-4-12-5-20-5s-12 1-20 5" opacity=".6"/><rect width="4" height="24" x="30" y="7" fill="#fff" rx="2"/><rect width="16" height="3" x="24" y="12" fill="#fff" rx="1"/><rect width="16" height="3" x="24" y="18" fill="#fff" rx="1"/><rect width="16" height="3" x="24" y="24" fill="#fff" rx="1"/><ellipse cx="8" cy="19" fill="#6b3810" rx="3" ry="8"/><ellipse cx="56" cy="19" fill="#6b3810" rx="3" ry="8"/></svg>