<svg width="400" height="400" viewBox="0 0 400 400" fill="none" xmlns="http://www.w3.org/2000/svg">
  <!-- Background -->
  <circle cx="200" cy="200" r="180" fill="#E8F5E9"/>
  
  <!-- Isometric Grid (Imples) -->
  
  <!-- Building 1 (Level 1) -->
  <path d="M100 250 L140 230 L180 250 L140 270 Z" fill="#81C784"/> <!-- Roof -->
  <path d="M100 250 L100 300 L140 320 L140 270 Z" fill="#66BB6A"/> <!-- Left Wall -->
  <path d="M140 320 L180 300 L180 250 L140 270 Z" fill="#4CAF50"/> <!-- Right Wall -->
  
  <!-- Arrow -->
  <path d="M160 220 Q200 180 240 140" stroke="#FF9800" stroke-width="4" stroke-dasharray="8 8"/>
  <path d="M240 140 L230 150 M240 140 L230 130" stroke="#FF9800" stroke-width="4"/>

  <!-- Building 2 (Level 5) -->
  <path d="M220 130 L260 110 L300 130 L260 150 Z" fill="#2196F3"/> <!-- Roof -->
  <path d="M220 130 V200 L260 220 V150 Z" fill="#1976D2"/> <!-- Left Wall -->
  <path d="M260 220 L300 200 V130 L260 150 Z" fill="#1565C0"/> <!-- Right Wall -->
  
  <!-- Sparkles -->
  <path d="M260 90 L265 100 L275 105 L265 110 L260 120 L255 110 L245 105 L255 100 Z" fill="#FFD700"/>
</svg>
