<svg width="400" height="400" viewBox="0 0 400 400" fill="none" xmlns="http://www.w3.org/2000/svg">
  <!-- Background -->
  <circle cx="200" cy="200" r="180" fill="#E1F5FE"/>
  
  <!-- Notebook -->
  <rect x="120" y="100" width="160" height="200" rx="4" fill="#546E7A"/>
  <rect x="130" y="100" width="140" height="200" fill="#ECEFF1"/>
  
  <!-- Lines -->
  <path d="M140 130 H260 M140 160 H260 M140 190 H260" stroke="#B0BEC5" stroke-width="2"/>
  
  <!-- Play Button (Video Concept) -->
  <circle cx="200" cy="240" r="30" fill="#FF5252"/>
  <path d="M190 225 L215 240 L190 255 Z" fill="white"/>
  
  <!-- Brain / Knowledge Icon hovering -->
  <circle cx="260" cy="100" r="40" fill="#FFD700" opacity="0.2"/>
  <path d="M260 80 C270 80 280 90 280 100 C280 120 260 130 260 130" stroke="#FBC02D" stroke-width="4" fill="none"/>
  
  <!-- Pencil -->
  <path d="M300 300 L280 280 L320 240 L340 260 Z" fill="#FFCA28"/>
  <path d="M280 280 L270 310 L300 300" fill="#FDD835"/>
</svg>
