<svg xmlns="http://www.w3.org/2000/svg" width="96" height="96" fill="none" viewBox="0 0 96 96"><ellipse cx="48" cy="90" fill="#a8e6cf" opacity=".5" rx="18" ry="4"/><rect width="28" height="28" x="34" y="50" fill="#e5a73b" rx="6"/><rect width="28" height="28" x="34" y="48" fill="#ffe66d" rx="6"/><circle cx="48" cy="60" r="7" fill="#fff3b0"/><text x="48" y="63" fill="#e5a73b" font-family="Arial" font-size="9" font-weight="bold" text-anchor="middle">3</text><rect width="10" height="18" x="26" y="52" fill="#ffd5b5" rx="5"/><rect width="10" height="18" x="60" y="52" fill="#ffd5b5" rx="5"/><rect width="10" height="18" x="38" y="74" fill="#ffd5b5" rx="4"/><rect width="10" height="20" x="50" y="68" fill="#ffd5b5" rx="4" transform="rotate(45 55 78)"/><rect width="14" height="6" x="36" y="88" fill="#2d2d44" rx="3"/><rect width="14" height="6" x="64" y="78" fill="#2d2d44" rx="3" transform="rotate(45 71 81)"/><ellipse cx="80" cy="56" fill="#a67c52" rx="6" ry="4" transform="rotate(-45 80 56)"/><ellipse cx="80" cy="55" fill="#c49a6c" rx="5" ry="3" transform="rotate(-45 80 55)"/><path stroke="#88d8f5" stroke-linecap="round" stroke-width="2" d="m70 64-4 4m8-8-4 4m-2-6-4 4"/><path stroke="#ffe66d" stroke-dasharray="4 4" stroke-linecap="round" stroke-width="2" d="M78 58q6-9 12-12"/><circle cx="48" cy="34" r="18" fill="#ffd5b5"/><path fill="#e5a73b" d="M30 34c0-10 8-18 18-18s18 8 18 18c0 4-2 6-4 8H34c-2-2-4-4-4-8"/><path fill="#ffe66d" d="M30 32c0-10 8-18 18-18s18 8 18 18c0 4-2 6-4 8H34c-2-2-4-4-4-8"/><path stroke="#c9b1ff" stroke-linecap="round" stroke-width="3" d="M38 32s4 6 10 6 10-6 10-6"/><path stroke="#c9b1ff" stroke-width="2" d="M43 32v6m10-6v6"/><rect width="4" height="24" x="46" y="14" fill="#fff" rx="2"/><circle cx="42" cy="30" r="3" fill="#2d2d44"/><circle cx="54" cy="30" r="3" fill="#2d2d44"/><circle cx="43" cy="29" r="1" fill="#fff"/><circle cx="55" cy="29" r="1" fill="#fff"/><path stroke="#e88a8a" stroke-linecap="round" stroke-width="2" d="m45 36 3 2 3-2"/><rect width="4" height="40" x="4" y="20" fill="#ffe66d" opacity=".3" rx="1"/><rect width="4" height="40" x="16" y="20" fill="#ffe66d" opacity=".3" rx="1"/><rect width="16" height="4" x="4" y="18" fill="#ffe66d" opacity=".3" rx="1"/><circle cx="88" cy="42" r="2" fill="#a8e6cf"/><circle cx="24" cy="16" r="1.5" fill="#ffe66d"/><circle cx="86" cy="32" r="1.5" fill="#f8a5a5"/></svg>