<svg xmlns="http://www.w3.org/2000/svg" width="96" height="96" fill="none" viewBox="0 0 96 96"><ellipse cx="48" cy="90" fill="#a8e6cf" opacity=".5" rx="24" ry="6"/><rect width="48" height="36" x="24" y="48" fill="#e88a8a" rx="12"/><rect width="48" height="36" x="24" y="46" fill="#f8a5a5" rx="12"/><circle cx="48" cy="60" r="10" fill="#ffbaba"/><text x="48" y="64" fill="#fff" font-family="Arial" font-size="11" font-weight="bold" text-anchor="middle">72</text><rect width="16" height="26" x="12" y="50" fill="#ffd5b5" rx="8"/><rect width="16" height="26" x="68" y="50" fill="#ffd5b5" rx="8"/><circle cx="20" cy="78" r="6" fill="#ffd5b5"/><circle cx="76" cy="78" r="6" fill="#ffd5b5"/><rect width="14" height="14" x="30" y="78" fill="#ffd5b5" rx="6"/><rect width="14" height="14" x="52" y="78" fill="#ffd5b5" rx="6"/><rect width="18" height="7" x="28" y="88" fill="#2d2d44" rx="3"/><rect width="18" height="7" x="50" y="88" fill="#2d2d44" rx="3"/><circle cx="48" cy="32" r="22" fill="#ffd5b5"/><path fill="#e88a8a" d="M26 32c0-14 10-22 22-22s22 8 22 22c0 6-2 10-4 12H30c-2-2-4-6-4-12"/><path fill="#f8a5a5" d="M26 30C26 16 36 8 48 8s22 8 22 22c0 6-2 10-4 12H30c-2-2-4-6-4-12"/><path stroke="#e5a73b" stroke-linecap="round" stroke-width="4" d="M32 32s6 10 16 10 16-10 16-10"/><path stroke="#e5a73b" stroke-width="3" d="M38 32v10m10-10v10m10-10v10"/><rect width="4" height="30" x="46" y="8" fill="#ffe66d" rx="2"/><circle cx="40" cy="30" r="4" fill="#2d2d44"/><circle cx="56" cy="30" r="4" fill="#2d2d44"/><circle cx="41" cy="29" r="1.5" fill="#fff"/><circle cx="57" cy="29" r="1.5" fill="#fff"/><path stroke="#8b6942" stroke-linecap="round" stroke-width="2" d="m36 24 8 2m16-2-8 2"/><path stroke="#5c4a32" stroke-linecap="round" stroke-width="2" d="M42 38h12"/><path stroke="#88d8f5" stroke-linecap="round" stroke-width="2" d="M16 94h-4m72 0h4"/><circle cx="84" cy="18" r="2.5" fill="#ffe66d"/><circle cx="12" cy="22" r="2" fill="#ffe66d"/></svg>