<svg xmlns="http://www.w3.org/2000/svg" width="96" height="96" fill="none" viewBox="0 0 96 96"><ellipse cx="48" cy="90" fill="#a8e6cf" opacity=".5" rx="20" ry="5"/><rect width="32" height="30" x="32" y="52" fill="#3dad9e" rx="8"/><rect width="32" height="30" x="32" y="50" fill="#4ecdc4" rx="8"/><circle cx="48" cy="62" r="8" fill="#7ee8df"/><text x="48" y="66" fill="#fff" font-family="Arial" font-size="10" font-weight="bold" text-anchor="middle">12</text><rect width="12" height="20" x="22" y="54" fill="#ffd5b5" rx="6"/><rect width="12" height="20" x="62" y="54" fill="#ffd5b5" rx="6"/><ellipse cx="74" cy="60" fill="#a67c52" rx="8" ry="5" transform="rotate(-30 74 60)"/><ellipse cx="74" cy="59" fill="#c49a6c" rx="7" ry="4" transform="rotate(-30 74 59)"/><path stroke="#fff8e7" stroke-linecap="round" d="m71 57 6 4"/><rect width="10" height="14" x="36" y="78" fill="#ffd5b5" rx="4"/><rect width="10" height="14" x="50" y="78" fill="#ffd5b5" rx="4"/><rect width="14" height="6" x="34" y="88" fill="#2d2d44" rx="3"/><rect width="14" height="6" x="48" y="88" fill="#2d2d44" rx="3"/><circle cx="48" cy="34" r="20" fill="#ffd5b5"/><path fill="#f8a5a5" d="M28 34c0-12 8-20 20-20s20 8 20 20c0 4-2 8-4 10H32c-2-2-4-6-4-10"/><path fill="#ffbaba" d="M28 32c0-12 8-20 20-20s20 8 20 20c0 4-2 8-4 10H32c-2-2-4-6-4-10"/><path stroke="#e5a73b" stroke-linecap="round" stroke-width="3" d="M36 34s4 6 12 6 12-6 12-6"/><path stroke="#e5a73b" stroke-width="2" d="M42 34v6m12-6v6"/><rect width="4" height="28" x="46" y="12" fill="#ffe66d" rx="2"/><circle cx="42" cy="32" r="3" fill="#2d2d44"/><circle cx="54" cy="32" r="3" fill="#2d2d44"/><circle cx="43" cy="31" r="1" fill="#fff"/><circle cx="55" cy="31" r="1" fill="#fff"/><path stroke="#e88a8a" stroke-linecap="round" stroke-width="2" d="M44 38s4 4 8 0"/><ellipse cx="38" cy="36" fill="#f8a5a5" opacity=".5" rx="3" ry="2"/><ellipse cx="58" cy="36" fill="#f8a5a5" opacity=".5" rx="3" ry="2"/><circle cx="76" cy="20" r="2" fill="#ffe66d"/><circle cx="20" cy="24" r="1.5" fill="#ffe66d"/></svg>