<svg xmlns="http://www.w3.org/2000/svg" width="96" height="96" fill="none" viewBox="0 0 96 96"><ellipse cx="48" cy="90" fill="#a8e6cf" opacity=".5" rx="20" ry="5"/><rect width="32" height="30" x="32" y="52" fill="#6b8ab8" rx="8"/><rect width="32" height="30" x="32" y="50" fill="#88a4c8" rx="8"/><circle cx="48" cy="62" r="8" fill="#a8c4e8"/><text x="48" y="66" fill="#fff" font-family="Arial" font-size="10" font-weight="bold" text-anchor="middle">28</text><rect width="12" height="20" x="20" y="50" fill="#8b6942" rx="6" transform="rotate(-20 26 60)"/><rect width="12" height="20" x="64" y="52" fill="#8b6942" rx="6"/><ellipse cx="78" cy="62" fill="#a67c52" rx="8" ry="5"/><ellipse cx="78" cy="61" fill="#c49a6c" rx="7" ry="4"/><path stroke="#fff8e7" stroke-linecap="round" d="m75 59 6 4"/><rect width="10" height="16" x="34" y="76" fill="#8b6942" rx="4" transform="rotate(15 39 84)"/><rect width="10" height="16" x="52" y="76" fill="#8b6942" rx="4" transform="rotate(-15 57 84)"/><rect width="14" height="6" x="32" y="88" fill="#2d2d44" rx="3"/><rect width="14" height="6" x="50" y="88" fill="#2d2d44" rx="3"/><circle cx="48" cy="34" r="20" fill="#8b6942"/><path fill="#6b8ab8" d="M28 34c0-12 8-20 20-20s20 8 20 20c0 4-2 8-4 10H32c-2-2-4-6-4-10"/><path fill="#88a4c8" d="M28 32c0-12 8-20 20-20s20 8 20 20c0 4-2 8-4 10H32c-2-2-4-6-4-10"/><path stroke="#e5a73b" stroke-linecap="round" stroke-width="3" d="M36 34s4 6 12 6 12-6 12-6"/><path stroke="#e5a73b" stroke-width="2" d="M42 34v6m12-6v6"/><rect width="4" height="28" x="46" y="12" fill="#ffe66d" rx="2"/><circle cx="42" cy="32" r="3" fill="#2d2d44"/><circle cx="54" cy="32" r="3" fill="#2d2d44"/><circle cx="43" cy="31" r="1" fill="#fff"/><circle cx="55" cy="31" r="1" fill="#fff"/><path stroke="#5c4a32" stroke-linecap="round" stroke-width="2" d="m42 38 6 2 6-2"/><path stroke="#88d8f5" stroke-linecap="round" stroke-width="2" d="M12 50H8m6 6H8m4 6H8"/><circle cx="80" cy="22" r="2" fill="#ffe66d"/><circle cx="16" cy="30" r="1.5" fill="#ffe66d"/></svg>