<svg xmlns="http://www.w3.org/2000/svg" width="96" height="96" fill="none" viewBox="0 0 96 96"><ellipse cx="48" cy="90" fill="#a8e6cf" opacity=".5" rx="18" ry="4"/><rect width="28" height="28" x="34" y="52" fill="#8b5a8b" rx="6"/><rect width="28" height="28" x="34" y="50" fill="#a87ca8" rx="6"/><circle cx="48" cy="62" r="7" fill="#c9a0c9"/><text x="48" y="65" fill="#fff" font-family="Arial" font-size="9" font-weight="bold" text-anchor="middle">81</text><rect width="10" height="22" x="24" y="42" fill="#ffd5b5" rx="5" transform="rotate(-30 29 53)"/><rect width="10" height="22" x="62" y="42" fill="#ffd5b5" rx="5" transform="rotate(30 67 53)"/><circle cx="16" cy="36" r="5" fill="#ffd5b5"/><circle cx="80" cy="36" r="5" fill="#ffd5b5"/><rect width="8" height="14" x="38" y="76" fill="#ffd5b5" rx="4"/><rect width="8" height="14" x="50" y="76" fill="#ffd5b5" rx="4"/><rect width="12" height="5" x="36" y="88" fill="#2d2d44" rx="2"/><rect width="12" height="5" x="48" y="88" fill="#2d2d44" rx="2"/><circle cx="48" cy="34" r="18" fill="#ffd5b5"/><path fill="#8b5a8b" d="M30 34c0-10 8-18 18-18s18 8 18 18c0 4-2 6-4 8H34c-2-2-4-4-4-8"/><path fill="#a87ca8" d="M30 32c0-10 8-18 18-18s18 8 18 18c0 4-2 6-4 8H34c-2-2-4-4-4-8"/><path stroke="#e5a73b" stroke-linecap="round" stroke-width="3" d="M38 32s4 6 10 6 10-6 10-6"/><path stroke="#e5a73b" stroke-width="2" d="M43 32v6m10-6v6"/><rect width="4" height="24" x="46" y="14" fill="#ffe66d" rx="2"/><ellipse cx="42" cy="30" fill="#2d2d44" rx="3" ry="3.5"/><ellipse cx="54" cy="30" fill="#2d2d44" rx="3" ry="3.5"/><circle cx="43" cy="29" r="1" fill="#fff"/><circle cx="55" cy="29" r="1" fill="#fff"/><ellipse cx="48" cy="38" fill="#e88a8a" rx="4" ry="3"/><ellipse cx="48" cy="8" fill="#a67c52" rx="8" ry="5"/><ellipse cx="48" cy="7" fill="#c49a6c" rx="7" ry="4"/><path stroke="#fff8e7" stroke-linecap="round" d="m45 5 6 4"/><path stroke="#88d8f5" stroke-linecap="round" stroke-width="2" d="M48 16v4m-6-2-2 4m14-4 2 4"/><circle cx="84" cy="28" r="2" fill="#ffe66d"/><circle cx="12" cy="52" r="1.5" fill="#ffe66d"/></svg>